<?xml version="1.0" encoding="utf-8"?>
<svg width="88px" height="88px" viewBox="0 0 88 88" version="1.1" xmlns:xlink="http://www.w3.org/1999/xlink" xmlns="http://www.w3.org/2000/svg">
  <defs>
    <path d="M88 0L88 0L88 88L0 88L0 0L88 0Z" id="path_1" />
    <clipPath id="clip_1">
      <use xlink:href="#path_1" />
    </clipPath>
  </defs>
  <g id="Express Js" clip-path="url(#clip_1)">
    <path d="M88 0L88 0L88 88L0 88L0 0L88 0Z" id="Express-Js" fill="none" stroke="none" />
    <path d="M43.4445 68.86L45.6078 68.86C47.1478 68.86 48.598 68.1413 49.5293 66.9148L63.2518 48.862L76.9743 66.9148C77.9057 68.1395 79.3558 68.86 80.8958 68.86L83.0592 68.86L65.5527 45.8333L82.2745 23.8333L80.1112 23.8333C78.5712 23.8333 77.121 24.552 76.1897 25.7785L63.25 42.8028L50.3085 25.7767C49.3772 24.552 47.927 23.8333 46.387 23.8333L44.2237 23.8333L60.9455 45.8333L43.4445 68.86L43.4445 68.86Z" id="Shape" fill="#212121" stroke="none" />
    <path d="M44 47.6667L44 42.1667C44 29.9292 33.1009 20.2382 20.4802 22.2713C10.6554 23.8535 3.66669 32.7378 3.66669 42.6873L3.66669 44L3.66669 47.6667L3.66669 47.927C3.66669 59.9408 12.4245 69.5347 23.5914 69.6667C32.9267 69.7767 40.8045 63.536 43.2209 55.0018L41.3362 55.0018C40.1995 55.0018 39.1692 55.6527 38.676 56.6757C35.4879 63.2665 28.0629 67.4227 19.9247 65.5527C12.4227 63.8275 7.33335 56.7985 7.33335 49.1022L7.33335 47.6667L44 47.6667L44 47.6667ZM7.33335 43.4683C7.33335 34.837 12.474 27.7805 20.0274 26.092C30.7964 23.6867 40.3334 31.812 40.3334 42.1667L40.3334 44L7.33335 44L7.33335 43.4683L7.33335 43.4683Z" id="Shape" fill="#212121" fill-rule="evenodd" stroke="none" />
  </g>
</svg>