<?xml version="1.0" encoding="utf-8"?>
<svg width="146px" height="146px" viewBox="0 0 146 146" version="1.1" xmlns:xlink="http://www.w3.org/1999/xlink" xmlns="http://www.w3.org/2000/svg">
  <defs>
    <path d="M146 0L146 0L146 146L0 146L0 0L146 0Z" id="path_1" />
    <path d="M0 0L168 0L168 58L0 58L0 0Z" id="path_2" />
    <clipPath id="clip_1">
      <use xlink:href="#path_1" />
    </clipPath>
    <clipPath id="clip_2">
      <use xlink:href="#path_2" transform="translate(0, -19.923294)" />
    </clipPath>
  </defs>
  <g id="Oracle Logo" clip-path="url(#clip_1)">
    <path d="M146 0L146 0L146 146L0 146L0 0L146 0Z" id="Oracle-Logo" fill="none" stroke="none" />
    <path d="M8.70221 66.9105L17.5748 66.9105C20.7685 66.9105 24.452 69.6359 24.452 72.9939C24.452 76.3519 20.7715 79.0772 17.5748 79.0772L8.70221 79.0772C5.50846 79.0772 3.04167 76.3549 3.04167 72.9939C3.04167 69.6328 5.50846 66.9105 8.70221 66.9105L8.70221 66.9105ZM130.856 63.8689C126.594 63.8689 123.188 67.9538 123.188 72.9939C123.188 78.0339 126.625 82.1189 130.856 82.1189L143.08 82.1189L146 79.0772L130.792 79.0772C128.06 78.9342 126.871 77.1366 126.229 74.5147L143.08 74.5147L146 71.473L126.229 71.473C126.877 68.8542 128.03 66.9257 130.792 66.9105L143.08 66.9105L146 63.8689L130.856 63.8689L130.856 63.8689ZM103.417 63.8689L103.417 80.373C103.417 80.8231 103.706 81.2611 104.028 81.5957C104.35 81.9303 104.785 82.1189 105.26 82.1189L117.226 82.125L120.268 79.0833L106.458 79.0772L106.458 63.875L103.417 63.8689L103.417 63.8689ZM84.6861 63.8689C79.8468 63.8689 76.0143 67.963 76.0143 73.003C76.0143 78.043 79.8468 82.1189 84.6861 82.1189L95.7851 82.0824L99.28 79.0772L84.6222 79.0772C81.4285 79.0772 79.0255 76.358 79.0255 72.9969C79.0255 69.6359 81.4285 66.9105 84.6222 66.9105L95.8429 66.9592L99.28 63.8689L84.6861 63.8689L84.6861 63.8689ZM63.875 63.8689C63.0903 63.8689 62.2873 64.5228 61.8371 65.338L53.2292 82.1189L56.2708 82.1189L63.875 66.9105L69.0185 76.0355L60.955 76.0355L63.8172 79.0164L70.4511 78.9981L72.4525 82.1158L75.7405 82.0884L65.773 65.338C65.0734 64.2156 64.6354 63.8689 63.875 63.8689L63.875 63.8689ZM30.4167 63.8689L30.4167 82.1189L33.4583 82.1189L33.4583 66.9105L42.5833 66.9105C44.1498 66.9105 45.625 68.3219 45.625 69.9522C45.625 71.5825 44.1498 72.9939 42.5833 72.9939L34.9792 72.9939L45.5672 82.1189L50.1875 82.1189L42.5833 76.0355L43.6084 76.0082C45.8592 76.0112 48.6667 73.3619 48.6667 69.9522C48.6667 66.5425 46.577 63.9115 43.943 63.8689L30.4167 63.8689L30.4167 63.8689ZM8.76608 63.8689C3.92679 63.8689 0 67.9569 0 72.9939C0 78.0309 3.92679 82.1189 8.76608 82.1189L17.52 82.1189C22.3593 82.1189 27.375 78.0339 27.375 72.9939C27.375 67.9538 22.3593 63.8689 17.52 63.8689L8.76608 63.8689L8.76608 63.8689Z" id="Shape" fill="#EF0F14" fill-rule="evenodd" stroke="none" />
    <g id="OAF,ADF,APEX" clip-path="url(#clip_2)" transform="translate(-15 98.923294)">
      <g transform="translate(28.628902, 0)" id="OAF,ADF,APEX" fill="#FF0000">
        <path d="M10.973 9.0767Q10.973 10.8612 10.2992 12.1129Q9.62536 13.3647 8.46946 14.0225Q7.31357 14.6804 5.8647 14.6804Q4.41051 14.6804 3.25462 14.0199Q2.09872 13.3594 1.42756 12.1049Q0.756392 10.8505 0.756392 9.0767Q0.756392 7.29226 1.42756 6.04048Q2.09872 4.78871 3.25462 4.13086Q4.41051 3.47301 5.8647 3.47301Q7.31357 3.47301 8.46946 4.13086Q9.62536 4.78871 10.2992 6.04048Q10.973 7.29226 10.973 9.0767ZM8.63459 9.0767Q8.63459 7.3402 7.8782 6.42667Q7.1218 5.51314 5.8647 5.51314Q4.6076 5.51314 3.85121 6.42667Q3.09482 7.3402 3.09482 9.0767Q3.09482 10.8079 3.85121 11.7241Q4.6076 12.6403 5.8647 12.6403Q7.1218 12.6403 7.8782 11.7241Q8.63459 10.8079 8.63459 9.0767ZM13.9453 14.5313L11.4737 14.5313L15.2397 3.62216L18.212 3.62216L21.9727 14.5313L19.5011 14.5313L18.6914 12.0437L14.755 12.0437L13.9453 14.5313ZM15.3409 10.2433L18.1108 10.2433L16.7685 6.11506L16.6832 6.11506L15.3409 10.2433ZM23.283 14.5313L23.283 3.62216L30.506 3.62216L30.506 5.52379L25.5895 5.52379L25.5895 8.12322L30.0266 8.12322L30.0266 10.0249L25.5895 10.0249L25.5895 14.5313L23.283 14.5313ZM33.8832 13.0398L33.8246 13.6257Q33.7553 14.3288 33.5609 15.0293Q33.3665 15.7298 33.1561 16.2997Q32.9457 16.8697 32.8178 17.1946L31.3477 17.1946Q31.4276 16.8803 31.5661 16.321Q31.7045 15.7617 31.8271 15.0613Q31.9496 14.3608 31.9815 13.6364L32.0082 13.0398L33.8832 13.0398ZM37.8835 14.5313L35.4119 14.5313L39.1779 3.62216L42.1502 3.62216L45.9109 14.5313L43.4393 14.5313L42.6296 12.0437L38.6932 12.0437L37.8835 14.5313ZM39.2791 10.2433L42.049 10.2433L40.7067 6.11506L40.6214 6.11506L39.2791 10.2433ZM51.0884 14.5313L47.2212 14.5313L47.2212 3.62216L51.1204 3.62216Q52.7663 3.62216 53.9569 4.27468Q55.1474 4.9272 55.7866 6.14702Q56.4258 7.36683 56.4258 9.06605Q56.4258 10.7706 55.7839 11.9957Q55.142 13.2209 53.9462 13.8761Q52.7504 14.5313 51.0884 14.5313ZM49.5277 12.555L50.9925 12.555Q52.532 12.555 53.3283 11.7241Q54.1246 10.8931 54.1246 9.06605Q54.1246 7.24965 53.3283 6.42401Q52.532 5.59837 50.9979 5.59837L49.5277 5.59837L49.5277 12.555ZM58.1303 14.5313L58.1303 3.62216L65.3533 3.62216L65.3533 5.52379L60.4368 5.52379L60.4368 8.12322L64.8739 8.12322L64.8739 10.0249L60.4368 10.0249L60.4368 14.5313L58.1303 14.5313ZM68.7305 13.0398L68.6719 13.6257Q68.6026 14.3288 68.4082 15.0293Q68.2138 15.7298 68.0034 16.2997Q67.793 16.8697 67.6651 17.1946L66.195 17.1946Q66.2749 16.8803 66.4134 16.321Q66.5518 15.7617 66.6744 15.0613Q66.7969 14.3608 66.8288 13.6364L66.8555 13.0398L68.7305 13.0398ZM72.7308 14.5313L70.2592 14.5313L74.0252 3.62216L76.9975 3.62216L80.7582 14.5313L78.2866 14.5313L77.4769 12.0437L73.5405 12.0437L72.7308 14.5313ZM74.1264 10.2433L76.8963 10.2433L75.554 6.11506L75.4688 6.11506L74.1264 10.2433ZM82.0685 14.5313L82.0685 3.62216L86.3725 3.62216Q87.6136 3.62216 88.4872 4.09357Q89.3608 4.56499 89.8216 5.39861Q90.2823 6.23224 90.2823 7.31889Q90.2823 8.40554 89.8136 9.23384Q89.3448 10.0621 88.4579 10.5282Q87.571 10.9943 86.3139 10.9943L84.375 10.9943L84.375 14.5313L82.0685 14.5313ZM84.375 9.14595L85.9411 9.14595Q86.9318 9.14595 87.4192 8.63725Q87.9066 8.12855 87.9066 7.31889Q87.9066 6.50391 87.4192 6.00586Q86.9318 5.50781 85.9304 5.50781L84.375 5.50781L84.375 9.14595ZM91.7844 14.5313L91.7844 3.62216L99.1353 3.62216L99.1353 5.52379L94.0909 5.52379L94.0909 8.12322L98.7571 8.12322L98.7571 10.0249L94.0909 10.0249L94.0909 12.6296L99.1566 12.6296L99.1566 14.5313L91.7844 14.5313ZM103.136 3.62216L105.336 7.3402L105.421 7.3402L107.631 3.62216L110.236 3.62216L106.907 9.0767L110.311 14.5313L107.658 14.5313L105.421 10.8079L105.336 10.8079L103.098 14.5313L100.456 14.5313L103.871 9.0767L100.52 3.62216L103.136 3.62216Z" />
      </g>
    </g>
  </g>
</svg>