<?xml version="1.0" encoding="utf-8"?>
<svg width="184px" height="184px" viewBox="0 0 184 184" version="1.1" xmlns:xlink="http://www.w3.org/1999/xlink" xmlns="http://www.w3.org/2000/svg">
  <defs>
    <path d="M184 0L184 0L184 184L0 184L0 0L184 0Z" id="path_1" />
    <path d="M0 0L161 0L161 49L0 49L0 0Z" id="path_2" />
    <clipPath id="clip_1">
      <use xlink:href="#path_1" />
    </clipPath>
    <clipPath id="clip_2">
      <use xlink:href="#path_2" transform="translate(0, -2.553711)" />
    </clipPath>
  </defs>
  <g id="Oracle Logo" clip-path="url(#clip_1)">
    <path d="M184 0L184 0L184 184L0 184L0 0L184 0Z" id="Oracle-Logo" fill="none" stroke="none" />
    <path d="M10.9672 84.3257L22.149 84.3257C26.174 84.3257 30.8162 87.7604 30.8162 91.9924C30.8162 96.2244 26.1778 99.659 22.149 99.659L10.9672 99.659C6.94217 99.659 3.83333 96.2282 3.83333 91.9924C3.83333 87.7565 6.94217 84.3257 10.9672 84.3257L10.9672 84.3257ZM164.914 80.4924C159.543 80.4924 155.25 85.6405 155.25 91.9924C155.25 98.3442 159.582 103.492 164.914 103.492L180.32 103.492L184 99.659L164.833 99.659C161.391 99.4789 159.892 97.2134 159.083 93.909L180.32 93.909L184 90.0757L159.083 90.0757C159.9 86.7752 161.353 84.3449 164.833 84.3257L180.32 84.3257L184 80.4924L164.914 80.4924L164.914 80.4924ZM130.333 80.4924L130.333 101.292C130.333 101.859 130.698 102.411 131.104 102.833C131.51 103.255 132.058 103.492 132.656 103.492L147.737 103.5L151.57 99.6667L134.167 99.659L134.167 80.5L130.333 80.4924L130.333 80.4924ZM106.728 80.4924C100.629 80.4924 95.7989 85.652 95.7989 92.0039C95.7989 98.3557 100.629 103.492 106.728 103.492L120.716 103.446L125.12 99.659L106.647 99.659C102.622 99.659 99.5939 96.232 99.5939 91.9962C99.5939 87.7604 102.622 84.3257 106.647 84.3257L120.788 84.387L125.12 80.4924L106.728 80.4924L106.728 80.4924ZM80.5 80.4924C79.511 80.4924 78.499 81.3165 77.9317 82.3439L67.0833 103.492L70.9167 103.492L80.5 84.3257L86.9822 95.8257L76.82 95.8257L80.4272 99.5824L88.7877 99.5594L91.31 103.489L95.4538 103.454L82.892 82.3439C82.0103 80.9294 81.4583 80.4924 80.5 80.4924L80.5 80.4924ZM38.3334 80.4924L38.3334 103.492L42.1667 103.492L42.1667 84.3257L53.6667 84.3257C55.6409 84.3257 57.5 86.1044 57.5 88.159C57.5 90.2137 55.6409 91.9924 53.6667 91.9924L44.0834 91.9924L57.4272 103.492L63.25 103.492L53.6667 95.8257L54.9585 95.7912C57.7952 95.795 61.3334 92.4562 61.3334 88.159C61.3334 83.8619 58.6999 80.546 55.3802 80.4924L38.3334 80.4924L38.3334 80.4924ZM11.0477 80.4924C4.94884 80.4924 0 85.6444 0 91.9924C0 98.3404 4.94884 103.492 11.0477 103.492L22.08 103.492C28.1789 103.492 34.5 98.3442 34.5 91.9924C34.5 85.6405 28.1789 80.4924 22.08 80.4924L11.0477 80.4924L11.0477 80.4924Z" id="Shape" fill="#EF0F14" fill-rule="evenodd" stroke="none" />
    <g id="OAF" clip-path="url(#clip_2)" transform="translate(8 110.55371)">
      <g transform="translate(48.05591, 0)" id="OAF" fill="#EF0F14">
        <path d="M12.4072 36.0132Q7.44433 36.0132 4.31836 32.7825Q1.19238 29.5518 1.19238 24.3633Q1.19238 18.8848 4.3667 15.501Q7.54102 12.1172 12.7778 12.1172Q17.7246 12.1172 20.7781 15.356Q23.8315 18.5947 23.8315 23.896Q23.8315 29.3423 20.6653 32.6777Q17.499 36.0132 12.4072 36.0132ZM12.6328 16.5967Q9.89355 16.5967 8.28223 18.6511Q6.6709 20.7056 6.6709 24.0894Q6.6709 27.5215 8.28223 29.5195Q9.89355 31.5176 12.5039 31.5176Q15.1948 31.5176 16.7739 29.5759Q18.353 27.6343 18.353 24.186Q18.353 20.5928 16.8223 18.5947Q15.2915 16.5967 12.6328 16.5967ZM47.4858 35.6104L41.814 35.6104L40.1704 30.4702L31.9526 30.4702L30.3252 35.6104L24.6855 35.6104L33.0967 12.5039L39.2681 12.5039L47.4858 35.6104ZM38.978 26.4741L36.4966 18.7075Q36.2227 17.8374 36.1099 16.6289L35.981 16.6289Q35.9004 17.644 35.5781 18.6431L33.0645 26.4741L38.978 26.4741ZM63.728 16.7417L55.5747 16.7417L55.5747 22.4136L63.0674 22.4136L63.0674 26.6353L55.5747 26.6353L55.5747 35.6104L50.3701 35.6104L50.3701 12.5039L63.728 12.5039L63.728 16.7417Z" />
      </g>
    </g>
  </g>
</svg>