<?xml version="1.0" encoding="utf-8"?>
<svg width="184px" height="184px" viewBox="0 0 184 184" version="1.1" xmlns:xlink="http://www.w3.org/1999/xlink" xmlns="http://www.w3.org/2000/svg">
  <defs>
    <path d="M184 0L184 0L184 184L0 184L0 0L184 0Z" id="path_1" />
    <path d="M0 0L161 0L161 49L0 49L0 0Z" id="path_2" />
    <clipPath id="clip_1">
      <use xlink:href="#path_1" />
    </clipPath>
    <clipPath id="clip_2">
      <use xlink:href="#path_2" transform="translate(0, -2.553711)" />
    </clipPath>
  </defs>
  <g id="Oracle Logo" clip-path="url(#clip_1)">
    <path d="M184 0L184 0L184 184L0 184L0 0L184 0Z" id="Oracle-Logo" fill="none" stroke="none" />
    <path d="M10.9672 84.3257L22.149 84.3257C26.174 84.3257 30.8162 87.7604 30.8162 91.9924C30.8162 96.2244 26.1778 99.659 22.149 99.659L10.9672 99.659C6.94217 99.659 3.83333 96.2282 3.83333 91.9924C3.83333 87.7565 6.94217 84.3257 10.9672 84.3257L10.9672 84.3257ZM164.914 80.4924C159.543 80.4924 155.25 85.6405 155.25 91.9924C155.25 98.3442 159.582 103.492 164.914 103.492L180.32 103.492L184 99.659L164.833 99.659C161.391 99.4789 159.892 97.2134 159.083 93.909L180.32 93.909L184 90.0757L159.083 90.0757C159.9 86.7752 161.353 84.3449 164.833 84.3257L180.32 84.3257L184 80.4924L164.914 80.4924L164.914 80.4924ZM130.333 80.4924L130.333 101.292C130.333 101.859 130.698 102.411 131.104 102.833C131.51 103.255 132.058 103.492 132.656 103.492L147.737 103.5L151.57 99.6667L134.167 99.659L134.167 80.5L130.333 80.4924L130.333 80.4924ZM106.728 80.4924C100.629 80.4924 95.7989 85.652 95.7989 92.0039C95.7989 98.3557 100.629 103.492 106.728 103.492L120.716 103.446L125.12 99.659L106.647 99.659C102.622 99.659 99.5939 96.232 99.5939 91.9962C99.5939 87.7604 102.622 84.3257 106.647 84.3257L120.788 84.387L125.12 80.4924L106.728 80.4924L106.728 80.4924ZM80.5 80.4924C79.511 80.4924 78.499 81.3165 77.9317 82.3439L67.0833 103.492L70.9167 103.492L80.5 84.3257L86.9822 95.8257L76.82 95.8257L80.4272 99.5824L88.7877 99.5594L91.31 103.489L95.4538 103.454L82.892 82.3439C82.0103 80.9294 81.4583 80.4924 80.5 80.4924L80.5 80.4924ZM38.3334 80.4924L38.3334 103.492L42.1667 103.492L42.1667 84.3257L53.6667 84.3257C55.6409 84.3257 57.5 86.1044 57.5 88.159C57.5 90.2137 55.6409 91.9924 53.6667 91.9924L44.0834 91.9924L57.4272 103.492L63.25 103.492L53.6667 95.8257L54.9585 95.7912C57.7952 95.795 61.3334 92.4562 61.3334 88.159C61.3334 83.8619 58.6999 80.546 55.3802 80.4924L38.3334 80.4924L38.3334 80.4924ZM11.0477 80.4924C4.94884 80.4924 0 85.6444 0 91.9924C0 98.3404 4.94884 103.492 11.0477 103.492L22.08 103.492C28.1789 103.492 34.5 98.3442 34.5 91.9924C34.5 85.6405 28.1789 80.4924 22.08 80.4924L11.0477 80.4924L11.0477 80.4924Z" id="Shape" fill="#EF0F14" fill-rule="evenodd" stroke="none" />
    <g id="APEX" clip-path="url(#clip_2)" transform="translate(8 110.55371)">
      <g transform="translate(38.83911, 0)" id="APEX" fill="#EF0F14">
        <path d="M22.9614 35.6104L17.2896 35.6104L15.646 30.4702L7.42822 30.4702L5.80078 35.6104L0.161133 35.6104L8.57227 12.5039L14.7437 12.5039L22.9614 35.6104ZM14.4536 26.4741L11.9722 18.7075Q11.6982 17.8374 11.5854 16.6289L11.4565 16.6289Q11.376 17.644 11.0537 18.6431L8.54004 26.4741L14.4536 26.4741ZM31.0503 27.6504L31.0503 35.6104L25.8457 35.6104L25.8457 12.5039L33.999 12.5039Q42.7324 12.5039 42.7324 19.8677Q42.7324 23.3481 40.2268 25.4993Q37.7212 27.6504 33.5317 27.6504L31.0503 27.6504ZM31.0503 16.5L31.0503 23.7026L33.0967 23.7026Q37.2539 23.7026 37.2539 20.061Q37.2539 16.5 33.0967 16.5L31.0503 16.5ZM59.9736 35.6104L46.1162 35.6104L46.1162 12.5039L59.4419 12.5039L59.4419 16.7417L51.3208 16.7417L51.3208 21.8818L58.8779 21.8818L58.8779 26.1035L51.3208 26.1035L51.3208 31.3887L59.9736 31.3887L59.9736 35.6104ZM83.209 35.6104L77.0376 35.6104L73.0576 28.0854Q72.832 27.6665 72.5903 26.5386L72.5259 26.5386Q72.4131 27.0703 71.9941 28.1499L67.998 35.6104L61.7944 35.6104L69.1582 24.0571L62.4229 12.5039L68.7554 12.5039L72.0586 19.4326Q72.4453 20.2544 72.7515 21.3823L72.8159 21.3823Q73.0093 20.7056 73.541 19.3682L77.2148 12.5039L83.0156 12.5039L76.0869 23.9604L83.209 35.6104Z" />
      </g>
    </g>
  </g>
</svg>