<?xml version="1.0" encoding="utf-8"?>
<svg width="184px" height="184px" viewBox="0 0 184 184" version="1.1" xmlns:xlink="http://www.w3.org/1999/xlink" xmlns="http://www.w3.org/2000/svg">
  <defs>
    <path d="M184 0L184 0L184 184L0 184L0 0L184 0Z" id="path_1" />
    <path d="M184 0L184 0L184 184L0 184L0 0L184 0L184 0Z" id="path_2" />
    <path d="M0 0L101 0L101 60L0 60L0 0Z" id="path_3" />
    <clipPath id="clip_1">
      <use xlink:href="#path_1" />
    </clipPath>
    <clipPath id="clip_2">
      <use xlink:href="#path_3" transform="translate(0, -11.846588)" />
    </clipPath>
    <clipPath id="mask_1">
      <use xlink:href="#path_2" />
    </clipPath>
  </defs>
  <g id="oracle-apex" clip-path="url(#clip_1)">
    <path d="M184 0L184 0L184 184L0 184L0 0L184 0Z" id="oracle-apex" fill="none" stroke="none" />
    <g id="Mask-Group">
      <path d="M184 0L184 0L184 184L0 184L0 0L184 0L184 0Z" id="path_1" fill="none" stroke="none" />
      <g clip-path="url(#mask_1)">
        <g id="Oracle-Logo">
          <path d="M184 0L184 0L184 184L0 184L0 0L184 0L184 0Z" id="Oracle-Logo" fill="none" stroke="none" />
          <path d="M10.9672 84.3257L22.149 84.3257C26.174 84.3257 30.8162 87.7604 30.8162 91.9924C30.8162 96.2244 26.1778 99.659 22.149 99.659L10.9672 99.659C6.94217 99.659 3.83333 96.2282 3.83333 91.9924C3.83333 87.7565 6.94217 84.3257 10.9672 84.3257L10.9672 84.3257L10.9672 84.3257ZM164.914 80.4924C159.543 80.4924 155.25 85.6405 155.25 91.9924C155.25 98.3442 159.582 103.492 164.914 103.492L180.32 103.492L184 99.659L164.833 99.659C161.391 99.4789 159.892 97.2134 159.083 93.909L180.32 93.909L184 90.0757L159.083 90.0757C159.9 86.7752 161.353 84.3449 164.833 84.3257L180.32 84.3257L184 80.4924L164.914 80.4924L164.914 80.4924L164.914 80.4924ZM130.333 80.4924L130.333 101.292C130.333 101.859 130.698 102.411 131.104 102.833C131.51 103.255 132.058 103.492 132.656 103.492L147.737 103.5L151.57 99.6667L134.167 99.659L134.167 80.5L130.333 80.4924L130.333 80.4924L130.333 80.4924ZM106.728 80.4924C100.629 80.4924 95.7989 85.652 95.7989 92.0039C95.7989 98.3557 100.629 103.492 106.728 103.492L120.716 103.446L125.12 99.659L106.647 99.659C102.622 99.659 99.5939 96.232 99.5939 91.9962C99.5939 87.7604 102.622 84.3257 106.647 84.3257L120.788 84.387L125.12 80.4924L106.728 80.4924L106.728 80.4924L106.728 80.4924ZM80.5 80.4924C79.511 80.4924 78.499 81.3165 77.9317 82.3439L67.0833 103.492L70.9167 103.492L80.5 84.3257L86.9822 95.8257L76.82 95.8257L80.4272 99.5824L88.7877 99.5594L91.31 103.489L95.4538 103.454L82.892 82.3439C82.0103 80.9294 81.4583 80.4924 80.5 80.4924L80.5 80.4924L80.5 80.4924ZM38.3334 80.4924L38.3334 103.492L42.1667 103.492L42.1667 84.3257L53.6667 84.3257C55.6409 84.3257 57.5 86.1044 57.5 88.159C57.5 90.2137 55.6409 91.9924 53.6667 91.9924L44.0834 91.9924L57.4272 103.492L63.25 103.492L53.6667 95.8257L54.9585 95.7912C57.7952 95.795 61.3334 92.4562 61.3334 88.159C61.3334 83.8619 58.6999 80.546 55.3802 80.4924L38.3334 80.4924L38.3334 80.4924L38.3334 80.4924ZM11.0477 80.4924C4.94884 80.4924 0 85.6444 0 91.9924C0 98.3404 4.94884 103.492 11.0477 103.492L22.08 103.492C28.1789 103.492 34.5 98.3442 34.5 91.9924C34.5 85.6405 28.1789 80.4924 22.08 80.4924L11.0477 80.4924L11.0477 80.4924L11.0477 80.4924Z" id="Shape" fill="#EF0F14" fill-rule="evenodd" stroke="none" />
        </g>
      </g>
    </g>
    <g id="ADF" clip-path="url(#clip_2)" transform="translate(42 116.84659)">
      <g transform="translate(19.599787, 0)" id="ADF" fill="#EF0F14">
        <path d="M5.65696 29.0625L0.713778 29.0625L8.24574 7.24432L14.1903 7.24432L21.7116 29.0625L16.7685 29.0625L15.1491 24.0874L7.27628 24.0874L5.65696 29.0625ZM8.44815 20.4865L13.9879 20.4865L11.3033 12.2301L11.1328 12.2301L8.44815 20.4865ZM32.0668 29.0625L24.3324 29.0625L24.3324 7.24432L32.1307 7.24432Q35.4226 7.24432 37.8036 8.54936Q40.1847 9.8544 41.4631 12.294Q42.7415 14.7337 42.7415 18.1321Q42.7415 21.5412 41.4577 23.9915Q40.174 26.4418 37.7823 27.7521Q35.3906 29.0625 32.0668 29.0625ZM28.9453 25.1101L31.875 25.1101Q34.9538 25.1101 36.5465 23.4482Q38.1392 21.7862 38.1392 18.1321Q38.1392 14.4993 36.5465 12.848Q34.9538 11.1967 31.8857 11.1967L28.9453 11.1967L28.9453 25.1101ZM46.1506 29.0625L46.1506 7.24432L60.5966 7.24432L60.5966 11.0476L50.7635 11.0476L50.7635 16.2464L59.6378 16.2464L59.6378 20.0497L50.7635 20.0497L50.7635 29.0625L46.1506 29.0625Z" />
      </g>
    </g>
  </g>
</svg>